{
  "accessors": [
    {
      "bufferView": 2,
      "componentType": 5126,
      "count": 7554,
      "max": [
        8.3097553253173828,
        8.4879074096679688,
        46.335182189941406
      ],
      "min": [
        -8.3084964752197266,
        -8.4845008850097656,
        0.00023610850621480495
      ],
      "type": "VEC3"
    },
    {
      "bufferView": 2,
      "byteOffset": 90648,
      "componentType": 5126,
      "count": 7554,
      "max": [
        0.99998575448989868,
        0.99989575147628784,
        1
      ],
      "min": [
        -0.9999663233757019,
        -0.99992293119430542,
        -1
      ],
      "type": "VEC3"
    },
    {
      "bufferView": 1,
      "componentType": 5126,
      "count": 7554,
      "max": [
        1,
        1
      ],
      "min": [
        0,
        0
      ],
      "type": "VEC2"
    },
    {
      "bufferView": 0,
      "componentType": 5125,
      "count": 45312,
      "max": [
        7553
      ],
      "min": [
        0
      ],
      "type": "SCALAR"
    },
    {
      "bufferView": 2,
      "byteOffset": 181296,
      "componentType": 5126,
      "count": 6280,
      "max": [
        30.678186416625977,
        43.4080810546875,
        88.581565856933594
      ],
      "min": [
        -33.138221740722656,
        -24.01325798034668,
        -0.58176964521408081
      ],
      "type": "VEC3"
    },
    {
      "bufferView": 2,
      "byteOffset": 256656,
      "componentType": 5126,
      "count": 6280,
      "max": [
        0.99757134914398193,
        0.99991416931152344,
        0.99957543611526489
      ],
      "min": [
        -0.99958497285842896,
        -0.9989047646522522,
        -0.99875682592391968
      ],
      "type": "VEC3"
    },
    {
      "bufferView": 1,
      "byteOffset": 60432,
      "componentType": 5126,
      "count": 6280,
      "max": [
        1,
        8
      ],
      "min": [
        0,
        0
      ],
      "type": "VEC2"
    },
    {
      "bufferView": 0,
      "byteOffset": 181248,
      "componentType": 5125,
      "count": 26844,
      "max": [
        6279
      ],
      "min": [
        0
      ],
      "type": "SCALAR"
    },
    {
      "bufferView": 2,
      "byteOffset": 332016,
      "componentType": 5126,
      "count": 38205,
      "max": [
        31.806365966796875,
        44.070625305175781,
        88.925376892089844
      ],
      "min": [
        -33.555549621582031,
        -24.607351303100586,
        44.104339599609375
      ],
      "type": "VEC3"
    },
    {
      "bufferView": 2,
      "byteOffset": 790476,
      "componentType": 5126,
      "count": 38205,
      "max": [
        0.99915730953216553,
        0.99996381998062134,
        0.99999433755874634
      ],
      "min": [
        -0.99995768070220947,
        -0.99996036291122437,
        -0.99996030330657959
      ],
      "type": "VEC3"
    },
    {
      "bufferView": 1,
      "byteOffset": 110672,
      "componentType": 5126,
      "count": 38205,
      "max": [
        0.99950045347213745,
        0.99950045347213745
      ],
      "min": [
        0.00049954652786254883,
        -0.051686644554138184
      ],
      "type": "VEC2"
    },
    {
      "bufferView": 0,
      "byteOffset": 288624,
      "componentType": 5125,
      "count": 57240,
      "max": [
        38204
      ],
      "min": [
        0
      ],
      "type": "SCALAR"
    },
    {
      "bufferView": 2,
      "byteOffset": 1248936,
      "componentType": 5126,
      "count": 22365,
      "max": [
        35.084465026855469,
        47.609817504882812,
        93.450546264648438
      ],
      "min": [
        -38.235141754150391,
        -29.753231048583984,
        39.222557067871094
      ],
      "type": "VEC3"
    },
    {
      "bufferView": 2,
      "byteOffset": 1517316,
      "componentType": 5126,
      "count": 22365,
      "max": [
        0.99957102537155151,
        0.99993133544921875,
        0.9999656081199646
      ],
      "min": [
        -0.99999558925628662,
        -0.99998611211776733,
        -0.99974644184112549
      ],
      "type": "VEC3"
    },
    {
      "bufferView": 1,
      "byteOffset": 416312,
      "componentType": 5126,
      "count": 22365,
      "max": [
        1.0346046686172485,
        0.97683614492416382
      ],
      "min": [
        0.056677486747503281,
        -0.0023329555988311768
      ],
      "type": "VEC2"
    },
    {
      "bufferView": 0,
      "byteOffset": 517584,
      "componentType": 5125,
      "count": 120960,
      "max": [
        22364
      ],
      "min": [
        0
      ],
      "type": "SCALAR"
    }
  ],
  "asset": {
    "extras": {
      "author": "Gajk.Mv (https://sketchfab.com/Gajk.Mv)",
      "license": "CC-BY-4.0 (http://creativecommons.org/licenses/by/4.0/)",
      "source": "https://sketchfab.com/3d-models/flowers-with-the-vase-0f58352d377840cdbeef0bd71b24aff6",
      "title": "flowers with the vase"
    },
    "generator": "Sketchfab-8.7.0",
    "version": "2.0"
  },
  "bufferViews": [
    {
      "buffer": 0,
      "byteLength": 1001424,
      "byteOffset": 0,
      "name": "floatBufferViews",
      "target": 34963
    },
    {
      "buffer": 0,
      "byteLength": 595232,
      "byteOffset": 1001424,
      "byteStride": 8,
      "name": "floatBufferViews",
      "target": 34962
    },
    {
      "buffer": 0,
      "byteLength": 1785696,
      "byteOffset": 1596656,
      "byteStride": 12,
      "name": "floatBufferViews",
      "target": 34962
    }
  ],
  "buffers": [
    {
      "byteLength": 3382352,
      "uri": "scene.bin"
    }
  ],
  "images": [
    {
      "uri": "textures/Material_60_baseColor.png"
    },
    {
      "uri": "textures/01_-_Default_baseColor.jpeg"
    },
    {
      "uri": "textures/02_-_Default_baseColor.jpeg"
    }
  ],
  "materials": [
    {
      "doubleSided": true,
      "name": "Material_34",
      "pbrMetallicRoughness": {
        "baseColorFactor": [
          0,
          0,
          0,
          1
        ],
        "metallicFactor": 0.77610518292682928,
        "roughnessFactor": 0
      }
    },
    {
      "doubleSided": true,
      "name": "Material_60",
      "pbrMetallicRoughness": {
        "baseColorFactor": [
          1,
          1,
          1,
          1
        ],
        "baseColorTexture": {
          "index": 0,
          "texCoord": 0
        },
        "metallicFactor": 0.11756859756097561,
        "roughnessFactor": 0.46512957317073172
      }
    },
    {
      "doubleSided": true,
      "name": "01_-_Default",
      "pbrMetallicRoughness": {
        "baseColorFactor": [
          1,
          1,
          1,
          1
        ],
        "baseColorTexture": {
          "index": 1,
          "texCoord": 0
        },
        "metallicFactor": 0,
        "roughnessFactor": 0.59999999999999998
      }
    },
    {
      "alphaMode": "BLEND",
      "doubleSided": true,
      "name": "02_-_Default",
      "pbrMetallicRoughness": {
        "baseColorFactor": [
          1,
          1,
          1,
          0.94683689024390238
        ],
        "baseColorTexture": {
          "index": 2,
          "texCoord": 0
        },
        "metallicFactor": 0,
        "roughnessFactor": 0.27610518292682928
      }
    }
  ],
  "meshes": [
    {
      "name": "Plane01_Material #34_0",
      "primitives": [
        {
          "attributes": {
            "NORMAL": 1,
            "POSITION": 0,
            "TEXCOORD_0": 2
          },
          "indices": 3,
          "material": 0,
          "mode": 4
        }
      ]
    },
    {
      "name": "GrowFX01_Material #60_0",
      "primitives": [
        {
          "attributes": {
            "NORMAL": 5,
            "POSITION": 4,
            "TEXCOORD_0": 6
          },
          "indices": 7,
          "material": 1,
          "mode": 4
        }
      ]
    },
    {
      "name": "GrowFX01_01 - Default_0",
      "primitives": [
        {
          "attributes": {
            "NORMAL": 9,
            "POSITION": 8,
            "TEXCOORD_0": 10
          },
          "indices": 11,
          "material": 2,
          "mode": 4
        }
      ]
    },
    {
      "name": "GrowFX01_02 - Default_0",
      "primitives": [
        {
          "attributes": {
            "NORMAL": 13,
            "POSITION": 12,
            "TEXCOORD_0": 14
          },
          "indices": 15,
          "material": 3,
          "mode": 4
        }
      ]
    }
  ],
  "nodes": [
    {
      "children": [
        1
      ],
      "name": "RootNode (gltf orientation matrix)",
      "rotation": [
        -0.70710678118654746,
        -0,
        -0,
        0.70710678118654757
      ]
    },
    {
      "children": [
        2
      ],
      "matrix": [
        1,
        0,
        0,
        0,
        0,
        1,
        0,
        0,
        0,
        0,
        1,
        0,
        -9.0385829025763087e-06,
        3.8587163544434588e-06,
        -7.1054273576010019e-15,
        1
      ],
      "name": "RootNode (model correction matrix)"
    },
    {
      "children": [
        3
      ],
      "matrix": [
        1,
        0,
        0,
        0,
        0,
        0,
        1,
        0,
        0,
        -1,
        0,
        0,
        0,
        0,
        0,
        1
      ],
      "name": "flower.FBX"
    },
    {
      "children": [
        4,
        6
      ],
      "name": "RootNode"
    },
    {
      "children": [
        5
      ],
      "matrix": [
        0.99999999999988631,
        -2.6469779601696886e-23,
        4.7683715820307079e-07,
        0,
        4.7683715820307079e-07,
        2.2204460492503131e-16,
        -0.99999999999988631,
        0,
        -2.6469779601696886e-23,
        1,
        2.2204460492503131e-16,
        0,
        -0.00077101588249206543,
        0.00084761856123805046,
        -0.00012579580652527511,
        1
      ],
      "name": "Plane01"
    },
    {
      "mesh": 0,
      "name": "Plane01_Material #34_0"
    },
    {
      "children": [
        7,
        8,
        9
      ],
      "matrix": [
        0.99999999999988631,
        -2.6469779601696886e-23,
        4.7683715820307079e-07,
        0,
        4.7683715820307079e-07,
        2.2204460492503131e-16,
        -0.99999999999988631,
        0,
        -2.6469779601696886e-23,
        1,
        2.2204460492503131e-16,
        0,
        -0.00077101588249206543,
        2.6405417919158936,
        -0.00012579580652527511,
        1
      ],
      "name": "GrowFX01"
    },
    {
      "mesh": 1,
      "name": "GrowFX01_Material #60_0"
    },
    {
      "mesh": 2,
      "name": "GrowFX01_01 - Default_0"
    },
    {
      "mesh": 3,
      "name": "GrowFX01_02 - Default_0"
    }
  ],
  "samplers": [
    {
      "magFilter": 9729,
      "minFilter": 9987,
      "wrapS": 10497,
      "wrapT": 10497
    }
  ],
  "scene": 0,
  "scenes": [
    {
      "name": "OSG_Scene",
      "nodes": [
        0
      ]
    }
  ],
  "textures": [
    {
      "sampler": 0,
      "source": 0
    },
    {
      "sampler": 0,
      "source": 1
    },
    {
      "sampler": 0,
      "source": 2
    }
  ]
}

