{
  "accessors": [
    {
      "bufferView": 2,
      "componentType": 5126,
      "count": 1493,
      "max": [
        14.056690216064453,
        14.041339874267578,
        2.0417098999023438
      ],
      "min": [
        -14.056690216064453,
        -14.020930290222168,
        -1.201990008354187
      ],
      "type": "VEC3"
    },
    {
      "bufferView": 2,
      "byteOffset": 17916,
      "componentType": 5126,
      "count": 1493,
      "max": [
        0.99990540742874146,
        0.99990540742874146,
        1
      ],
      "min": [
        -0.99990540742874146,
        -0.99990540742874146,
        -0.99733948707580566
      ],
      "type": "VEC3"
    },
    {
      "bufferView": 3,
      "componentType": 5126,
      "count": 1493,
      "max": [
        0.9999845027923584,
        0.99998557567596436,
        0.99995511770248413,
        1
      ],
      "min": [
        -0.99999135732650757,
        -0.99998563528060913,
        -0.99989181756973267,
        -1
      ],
      "type": "VEC4"
    },
    {
      "bufferView": 1,
      "componentType": 5126,
      "count": 1493,
      "max": [
        0.99945998191833496,
        0.99928998947143555
      ],
      "min": [
        0.0005300000193528831,
        0.00070999999297782779
      ],
      "type": "VEC2"
    },
    {
      "bufferView": 0,
      "componentType": 5125,
      "count": 7278,
      "max": [
        1492
      ],
      "min": [
        0
      ],
      "type": "SCALAR"
    }
  ],
  "asset": {
    "extras": {
      "author": "Shootingglas (https://sketchfab.com/Shootingglas)",
      "license": "CC-BY-4.0 (http://creativecommons.org/licenses/by/4.0/)",
      "source": "https://sketchfab.com/models/82d8b3fb158e45d1bac887cf2ffec43b",
      "title": "Wine Glass Blue Crystal"
    },
    "generator": "Sketchfab-3.32.3",
    "version": "2.0"
  },
  "bufferViews": [
    {
      "buffer": 0,
      "byteLength": 29112,
      "byteOffset": 0,
      "name": "floatBufferViews",
      "target": 34963
    },
    {
      "buffer": 0,
      "byteLength": 11944,
      "byteOffset": 29112,
      "byteStride": 8,
      "name": "floatBufferViews",
      "target": 34962
    },
    {
      "buffer": 0,
      "byteLength": 35832,
      "byteOffset": 41056,
      "byteStride": 12,
      "name": "floatBufferViews",
      "target": 34962
    },
    {
      "buffer": 0,
      "byteLength": 23888,
      "byteOffset": 76888,
      "byteStride": 16,
      "name": "floatBufferViews",
      "target": 34962
    }
  ],
  "buffers": [
    {
      "byteLength": 100776,
      "uri": "scene.bin"
    }
  ],
  "extensionsRequired": [
    "KHR_materials_pbrSpecularGlossiness"
  ],
  "extensionsUsed": [
    "KHR_materials_pbrSpecularGlossiness"
  ],
  "images": [
    {
      "uri": "textures/Material.001_diffuse.jpeg"
    },
    {
      "uri": "textures/Material.001_specularGlossiness.png"
    }
  ],
  "materials": [
    {
      "alphaMode": "BLEND",
      "doubleSided": true,
      "extensions": {
        "KHR_materials_pbrSpecularGlossiness": {
          "diffuseFactor": [
            1,
            1,
            1,
            0.38357442219999999
          ],
          "diffuseTexture": {
            "index": 0,
            "texCoord": 0
          },
          "glossinessFactor": 1,
          "specularFactor": [
            1,
            1,
            1
          ],
          "specularGlossinessTexture": {
            "index": 1,
            "texCoord": 0
          }
        }
      },
      "name": "Material.001"
    }
  ],
  "meshes": [
    {
      "name": "Cylinder.001_0",
      "primitives": [
        {
          "attributes": {
            "NORMAL": 1,
            "POSITION": 0,
            "TANGENT": 2,
            "TEXCOORD_0": 3
          },
          "indices": 4,
          "material": 0,
          "mode": 4
        }
      ]
    }
  ],
  "nodes": [
    {
      "children": [
        1
      ],
      "name": "RootNode (gltf orientation matrix)",
      "rotation": [
        -0.70710678118654746,
        -0,
        -0,
        0.70710678118654757
      ]
    },
    {
      "children": [
        2
      ],
      "name": "RootNode (model correction matrix)"
    },
    {
      "children": [
        3,
        5
      ],
      "name": "Root"
    },
    {
      "children": [
        4
      ],
      "matrix": [
        -0.29086000000000006,
        0.95517000000000007,
        -0.05519000000000001,
        0,
        -0.77110000000000001,
        -0.19988000000000003,
        0.60452000000000006,
        0,
        0.56639000000000006,
        0.21839000000000003,
        0.7946700000000001,
        0,
        4.0762500000000008,
        1.00545,
        5.9038600000000008,
        1
      ],
      "name": "Lamp"
    },
    {
      "name": "Lamp"
    },
    {
      "children": [
        6
      ],
      "matrix": [
        0.068780000000000022,
        0,
        0,
        0,
        0,
        0.068780000000000022,
        0,
        0,
        0,
        0,
        0.77260000000000006,
        0,
        0,
        0,
        0.97134999999999994,
        1
      ],
      "name": "Cylinder.001"
    },
    {
      "mesh": 0,
      "name": "Cylinder.001_0"
    }
  ],
  "samplers": [
    {
      "magFilter": 9729,
      "minFilter": 9987,
      "wrapS": 10497,
      "wrapT": 10497
    }
  ],
  "scene": 0,
  "scenes": [
    {
      "name": "OSG_Scene",
      "nodes": [
        0
      ]
    }
  ],
  "textures": [
    {
      "sampler": 0,
      "source": 0
    },
    {
      "sampler": 0,
      "source": 1
    }
  ]
}

