{
  "accessors": [
    {
      "bufferView": 2,
      "componentType": 5126,
      "count": 65532,
      "max": [
        0.37265500426292419,
        0.70208501815795898,
        0.96493500471115112
      ],
      "min": [
        -1,
        -0.96667897701263428,
        -0.58302897214889526
      ],
      "type": "VEC3"
    },
    {
      "bufferView": 2,
      "byteOffset": 786384,
      "componentType": 5126,
      "count": 65532,
      "max": [
        0.99988102912902832,
        1,
        1
      ],
      "min": [
        -0.99997389316558838,
        -1,
        -0.99996453523635864
      ],
      "type": "VEC3"
    },
    {
      "bufferView": 3,
      "componentType": 5126,
      "count": 65532,
      "max": [
        0.99998313188552856,
        0.99966418743133545,
        0.99999135732650757,
        1
      ],
      "min": [
        -0.99955272674560547,
        -0.99996113777160645,
        -0.99998509883880615,
        -1
      ],
      "type": "VEC4"
    },
    {
      "bufferView": 1,
      "componentType": 5126,
      "count": 65532,
      "max": [
        0.95631301403045654,
        0.71020597219467163
      ],
      "min": [
        9.3579301392310299e-06,
        2.3841900542720396e-07
      ],
      "type": "VEC2"
    },
    {
      "bufferView": 0,
      "componentType": 5125,
      "count": 378048,
      "max": [
        65531
      ],
      "min": [
        0
      ],
      "type": "SCALAR"
    },
    {
      "bufferView": 2,
      "byteOffset": 1572768,
      "componentType": 5126,
      "count": 65532,
      "max": [
        0.23748600482940674,
        0.63025498390197754,
        0.96489602327346802
      ],
      "min": [
        -0.39350101351737976,
        0.14661300182342529,
        0.38150200247764587
      ],
      "type": "VEC3"
    },
    {
      "bufferView": 2,
      "byteOffset": 2359152,
      "componentType": 5126,
      "count": 65532,
      "max": [
        0.99986010789871216,
        0.99992954730987549,
        0.99936199188232422
      ],
      "min": [
        -0.99966162443161011,
        -0.99902361631393433,
        -0.99994313716888428
      ],
      "type": "VEC3"
    },
    {
      "bufferView": 3,
      "byteOffset": 1048512,
      "componentType": 5126,
      "count": 65532,
      "max": [
        0.9999922513961792,
        0.96689242124557495,
        0.99911099672317505,
        1
      ],
      "min": [
        -0.99999004602432251,
        -0.99990266561508179,
        -0.99996852874755859,
        1
      ],
      "type": "VEC4"
    },
    {
      "bufferView": 1,
      "byteOffset": 524256,
      "componentType": 5126,
      "count": 65532,
      "max": [
        0.3513529896736145,
        0.69155597686767578
      ],
      "min": [
        0.029062800109386444,
        0.43683499097824097
      ],
      "type": "VEC2"
    },
    {
      "bufferView": 0,
      "byteOffset": 1512192,
      "componentType": 5125,
      "count": 367989,
      "max": [
        65531
      ],
      "min": [
        0
      ],
      "type": "SCALAR"
    },
    {
      "bufferView": 2,
      "byteOffset": 3145536,
      "componentType": 5126,
      "count": 65532,
      "max": [
        0.76029098033905029,
        0.81415200233459473,
        0.71350598335266113
      ],
      "min": [
        -0.34040999412536621,
        -0.46653801202774048,
        0.097498998045921326
      ],
      "type": "VEC3"
    },
    {
      "bufferView": 2,
      "byteOffset": 3931920,
      "componentType": 5126,
      "count": 65532,
      "max": [
        0.9999728798866272,
        0.99995625019073486,
        0.99999046325683594
      ],
      "min": [
        -0.99999523162841797,
        -1,
        -0.9999958872795105
      ],
      "type": "VEC3"
    },
    {
      "bufferView": 3,
      "byteOffset": 2097024,
      "componentType": 5126,
      "count": 65532,
      "max": [
        0.99999070167541504,
        0.99881988763809204,
        0.99999642372131348,
        1
      ],
      "min": [
        -0.99996644258499146,
        -0.99887824058532715,
        -0.99998539686203003,
        -1
      ],
      "type": "VEC4"
    },
    {
      "bufferView": 1,
      "byteOffset": 1048512,
      "componentType": 5126,
      "count": 65532,
      "max": [
        0.2797589898109436,
        0.81648200750350952
      ],
      "min": [
        2.235170057929281e-07,
        0.1691419929265976
      ],
      "type": "VEC2"
    },
    {
      "bufferView": 0,
      "byteOffset": 2984148,
      "componentType": 5125,
      "count": 350352,
      "max": [
        65531
      ],
      "min": [
        0
      ],
      "type": "SCALAR"
    },
    {
      "bufferView": 2,
      "byteOffset": 4718304,
      "componentType": 5126,
      "count": 65532,
      "max": [
        0.92181199789047241,
        0.81403201818466187,
        0.61375200748443604
      ],
      "min": [
        0.21687799692153931,
        0.089208796620368958,
        0.086979098618030548
      ],
      "type": "VEC3"
    },
    {
      "bufferView": 2,
      "byteOffset": 5504688,
      "componentType": 5126,
      "count": 65532,
      "max": [
        0.99994361400604248,
        0.99995821714401245,
        0.99400109052658081
      ],
      "min": [
        -0.99875885248184204,
        -0.99889212846755981,
        -0.9999765157699585
      ],
      "type": "VEC3"
    },
    {
      "bufferView": 3,
      "byteOffset": 3145536,
      "componentType": 5126,
      "count": 65532,
      "max": [
        0.99996811151504517,
        0.99998986721038818,
        0.99997621774673462,
        1
      ],
      "min": [
        -0.9999651312828064,
        -0.99997431039810181,
        -0.9999961256980896,
        -1
      ],
      "type": "VEC4"
    },
    {
      "bufferView": 1,
      "byteOffset": 1572768,
      "componentType": 5126,
      "count": 65532,
      "max": [
        0.41434100270271301,
        0.99999898672103882
      ],
      "min": [
        4.9844397835840937e-06,
        0.69596797227859497
      ],
      "type": "VEC2"
    },
    {
      "bufferView": 0,
      "byteOffset": 4385556,
      "componentType": 5125,
      "count": 334821,
      "max": [
        65531
      ],
      "min": [
        0
      ],
      "type": "SCALAR"
    },
    {
      "bufferView": 2,
      "byteOffset": 6291072,
      "componentType": 5126,
      "count": 65532,
      "max": [
        0.93414098024368286,
        0.81411999464035034,
        0.38245999813079834
      ],
      "min": [
        0.020796900615096092,
        -0.41663798689842224,
        0.05963670089840889
      ],
      "type": "VEC3"
    },
    {
      "bufferView": 2,
      "byteOffset": 7077456,
      "componentType": 5126,
      "count": 65532,
      "max": [
        0.99995750188827515,
        0.99990600347518921,
        0.99912750720977783
      ],
      "min": [
        -0.99779921770095825,
        -0.99889212846755981,
        -0.9999765157699585
      ],
      "type": "VEC3"
    },
    {
      "bufferView": 3,
      "byteOffset": 4194048,
      "componentType": 5126,
      "count": 65532,
      "max": [
        0.99999994039535522,
        0.99998986721038818,
        0.99999797344207764,
        1
      ],
      "min": [
        -1,
        -0.99997907876968384,
        -0.99999856948852539,
        -1
      ],
      "type": "VEC4"
    },
    {
      "bufferView": 1,
      "byteOffset": 2097024,
      "componentType": 5126,
      "count": 65532,
      "max": [
        0.12879900634288788,
        0.83973401784896851
      ],
      "min": [
        0.042277500033378601,
        0.76188397407531738
      ],
      "type": "VEC2"
    },
    {
      "bufferView": 0,
      "byteOffset": 5724840,
      "componentType": 5125,
      "count": 328758,
      "max": [
        65531
      ],
      "min": [
        0
      ],
      "type": "SCALAR"
    },
    {
      "bufferView": 2,
      "byteOffset": 7863840,
      "componentType": 5126,
      "count": 28981,
      "max": [
        1,
        0.96667999029159546,
        0.11933799833059311
      ],
      "min": [
        -0.13092799484729767,
        -0.89746600389480591,
        -0.96493500471115112
      ],
      "type": "VEC3"
    },
    {
      "bufferView": 2,
      "byteOffset": 8211612,
      "componentType": 5126,
      "count": 28981,
      "max": [
        0.99976611137390137,
        0.99906688928604126,
        0.99999666213989258
      ],
      "min": [
        -0.99954664707183838,
        -0.99998033046722412,
        -0.99999487400054932
      ],
      "type": "VEC3"
    },
    {
      "bufferView": 3,
      "byteOffset": 5242560,
      "componentType": 5126,
      "count": 28981,
      "max": [
        1,
        0.99998360872268677,
        0.99853056669235229,
        1
      ],
      "min": [
        -1,
        -0.99999946355819702,
        -0.99999994039535522,
        -1
      ],
      "type": "VEC4"
    },
    {
      "bufferView": 1,
      "byteOffset": 2621280,
      "componentType": 5126,
      "count": 28981,
      "max": [
        0.99994301795959473,
        0.85534399747848511
      ],
      "min": [
        0,
        0
      ],
      "type": "VEC2"
    },
    {
      "bufferView": 0,
      "byteOffset": 7039872,
      "componentType": 5125,
      "count": 157686,
      "max": [
        28980
      ],
      "min": [
        0
      ],
      "type": "SCALAR"
    }
  ],
  "asset": {
    "extras": {
      "author": "leebayarts (https://sketchfab.com/leebayarts)",
      "license": "CC-BY-4.0 (http://creativecommons.org/licenses/by/4.0/)",
      "source": "https://sketchfab.com/3d-models/house-plant-f08a392f8d2c4121948840e9459b1de3",
      "title": "House Plant"
    },
    "generator": "Sketchfab-7.80.0",
    "version": "2.0"
  },
  "bufferViews": [
    {
      "buffer": 0,
      "byteLength": 7670616,
      "byteOffset": 0,
      "name": "floatBufferViews",
      "target": 34963
    },
    {
      "buffer": 0,
      "byteLength": 2853128,
      "byteOffset": 7670616,
      "byteStride": 8,
      "name": "floatBufferViews",
      "target": 34962
    },
    {
      "buffer": 0,
      "byteLength": 8559384,
      "byteOffset": 10523744,
      "byteStride": 12,
      "name": "floatBufferViews",
      "target": 34962
    },
    {
      "buffer": 0,
      "byteLength": 5706256,
      "byteOffset": 19083128,
      "byteStride": 16,
      "name": "floatBufferViews",
      "target": 34962
    }
  ],
  "buffers": [
    {
      "byteLength": 24789384,
      "uri": "scene.bin"
    }
  ],
  "images": [
    {
      "uri": "textures/DefaultMaterial_baseColor.jpeg"
    },
    {
      "uri": "textures/DefaultMaterial_metallicRoughness.png"
    },
    {
      "uri": "textures/DefaultMaterial_normal.png"
    }
  ],
  "materials": [
    {
      "doubleSided": true,
      "emissiveFactor": [
        0,
        0,
        0
      ],
      "name": "DefaultMaterial",
      "normalTexture": {
        "index": 2,
        "scale": 1,
        "texCoord": 0
      },
      "occlusionTexture": {
        "index": 1,
        "strength": 1,
        "texCoord": 0
      },
      "pbrMetallicRoughness": {
        "baseColorFactor": [
          1,
          1,
          1,
          1
        ],
        "baseColorTexture": {
          "index": 0,
          "texCoord": 0
        },
        "metallicFactor": 1,
        "metallicRoughnessTexture": {
          "index": 1,
          "texCoord": 0
        },
        "roughnessFactor": 1
      }
    }
  ],
  "meshes": [
    {
      "name": "defaultMaterial",
      "primitives": [
        {
          "attributes": {
            "NORMAL": 1,
            "POSITION": 0,
            "TANGENT": 2,
            "TEXCOORD_0": 3
          },
          "indices": 4,
          "material": 0,
          "mode": 4
        }
      ]
    },
    {
      "name": "defaultMaterial",
      "primitives": [
        {
          "attributes": {
            "NORMAL": 6,
            "POSITION": 5,
            "TANGENT": 7,
            "TEXCOORD_0": 8
          },
          "indices": 9,
          "material": 0,
          "mode": 4
        }
      ]
    },
    {
      "name": "defaultMaterial",
      "primitives": [
        {
          "attributes": {
            "NORMAL": 11,
            "POSITION": 10,
            "TANGENT": 12,
            "TEXCOORD_0": 13
          },
          "indices": 14,
          "material": 0,
          "mode": 4
        }
      ]
    },
    {
      "name": "defaultMaterial",
      "primitives": [
        {
          "attributes": {
            "NORMAL": 16,
            "POSITION": 15,
            "TANGENT": 17,
            "TEXCOORD_0": 18
          },
          "indices": 19,
          "material": 0,
          "mode": 4
        }
      ]
    },
    {
      "name": "defaultMaterial",
      "primitives": [
        {
          "attributes": {
            "NORMAL": 21,
            "POSITION": 20,
            "TANGENT": 22,
            "TEXCOORD_0": 23
          },
          "indices": 24,
          "material": 0,
          "mode": 4
        }
      ]
    },
    {
      "name": "defaultMaterial",
      "primitives": [
        {
          "attributes": {
            "NORMAL": 26,
            "POSITION": 25,
            "TANGENT": 27,
            "TEXCOORD_0": 28
          },
          "indices": 29,
          "material": 0,
          "mode": 4
        }
      ]
    }
  ],
  "nodes": [
    {
      "children": [
        1
      ],
      "name": "RootNode (gltf orientation matrix)",
      "rotation": [
        -0.70710678118654746,
        -0,
        -0,
        0.70710678118654757
      ]
    },
    {
      "children": [
        2
      ],
      "name": "RootNode (model correction matrix)"
    },
    {
      "children": [
        3
      ],
      "matrix": [
        1,
        0,
        0,
        0,
        0,
        -4.3711390063094768e-08,
        0.999999999999999,
        0,
        0,
        -0.999999999999999,
        -4.3711390063094768e-08,
        0,
        0,
        0,
        0,
        1
      ],
      "name": "Collada visual scene group"
    },
    {
      "children": [
        4,
        5,
        6,
        7,
        8,
        9
      ],
      "name": "g"
    },
    {
      "mesh": 0,
      "name": "defaultMaterial"
    },
    {
      "mesh": 1,
      "name": "defaultMaterial"
    },
    {
      "mesh": 2,
      "name": "defaultMaterial"
    },
    {
      "mesh": 3,
      "name": "defaultMaterial"
    },
    {
      "mesh": 4,
      "name": "defaultMaterial"
    },
    {
      "mesh": 5,
      "name": "defaultMaterial"
    }
  ],
  "samplers": [
    {
      "magFilter": 9729,
      "minFilter": 9987,
      "wrapS": 10497,
      "wrapT": 10497
    }
  ],
  "scene": 0,
  "scenes": [
    {
      "name": "OSG_Scene",
      "nodes": [
        0
      ]
    }
  ],
  "textures": [
    {
      "sampler": 0,
      "source": 0
    },
    {
      "sampler": 0,
      "source": 1
    },
    {
      "sampler": 0,
      "source": 2
    }
  ]
}

