{
  "accessors": [
    {
      "bufferView": 2,
      "componentType": 5126,
      "count": 5269,
      "max": [
        0.68897640705108643,
        5.588709831237793,
        1.3779528141021729
      ],
      "min": [
        -0.68897664546966553,
        -2.8703291416168213,
        -4.76837158203125e-07
      ],
      "type": "VEC3"
    },
    {
      "bufferView": 2,
      "byteOffset": 63228,
      "componentType": 5126,
      "count": 5269,
      "max": [
        1,
        1,
        1
      ],
      "min": [
        -1,
        -1,
        -1
      ],
      "type": "VEC3"
    },
    {
      "bufferView": 1,
      "componentType": 5126,
      "count": 5269,
      "max": [
        0.9965435266494751,
        1.0041464567184448
      ],
      "min": [
        -0.0097121680155396461,
        -0.0041464371606707573
      ],
      "type": "VEC2"
    },
    {
      "bufferView": 0,
      "componentType": 5125,
      "count": 5316,
      "max": [
        5268
      ],
      "min": [
        0
      ],
      "type": "SCALAR"
    },
    {
      "bufferView": 2,
      "byteOffset": 126456,
      "componentType": 5126,
      "count": 150,
      "max": [
        0.36218345165252686,
        0.35668107867240906,
        0.94183361530303955
      ],
      "min": [
        -0.36218345165252686,
        -0.35668110847473145,
        0
      ],
      "type": "VEC3"
    },
    {
      "bufferView": 2,
      "byteOffset": 128256,
      "componentType": 5126,
      "count": 150,
      "max": [
        1,
        0.98480784893035889,
        1
      ],
      "min": [
        -1,
        -0.98480790853500366,
        -1
      ],
      "type": "VEC3"
    },
    {
      "bufferView": 1,
      "byteOffset": 42152,
      "componentType": 5126,
      "count": 150,
      "max": [
        1.0277777910232544,
        1
      ],
      "min": [
        0.007596135139465332,
        0
      ],
      "type": "VEC2"
    },
    {
      "bufferView": 0,
      "byteOffset": 21264,
      "componentType": 5125,
      "count": 636,
      "max": [
        149
      ],
      "min": [
        0
      ],
      "type": "SCALAR"
    },
    {
      "bufferView": 2,
      "byteOffset": 130056,
      "componentType": 5126,
      "count": 844,
      "max": [
        3.9370079040527344,
        3.4202589988708496,
        7.8740158081054688
      ],
      "min": [
        -3.9370079040527344,
        -3.4202589988708496,
        0
      ],
      "type": "VEC3"
    },
    {
      "bufferView": 2,
      "byteOffset": 140184,
      "componentType": 5126,
      "count": 844,
      "max": [
        1,
        1,
        1
      ],
      "min": [
        -1,
        -1,
        -1
      ],
      "type": "VEC3"
    },
    {
      "bufferView": 1,
      "byteOffset": 43352,
      "componentType": 5126,
      "count": 844,
      "max": [
        1,
        1.0016764402389526
      ],
      "min": [
        -3.9786099415017873e-10,
        -0.0016764384927228093
      ],
      "type": "VEC2"
    },
    {
      "bufferView": 0,
      "byteOffset": 23808,
      "componentType": 5125,
      "count": 1056,
      "max": [
        843
      ],
      "min": [
        0
      ],
      "type": "SCALAR"
    },
    {
      "bufferView": 2,
      "byteOffset": 150312,
      "componentType": 5126,
      "count": 6319,
      "max": [
        0.08006739616394043,
        1.1744961738586426,
        2.3488187789916992
      ],
      "min": [
        -0.08006739616394043,
        -1.1744961738586426,
        0
      ],
      "type": "VEC3"
    },
    {
      "bufferView": 2,
      "byteOffset": 226140,
      "componentType": 5126,
      "count": 6319,
      "max": [
        1,
        1,
        1
      ],
      "min": [
        -1,
        -1,
        -1
      ],
      "type": "VEC3"
    },
    {
      "bufferView": 1,
      "byteOffset": 50104,
      "componentType": 5126,
      "count": 6319,
      "max": [
        1.0010699033737183,
        2.3164396286010742
      ],
      "min": [
        -2.9472160339355469,
        -1.316440224647522
      ],
      "type": "VEC2"
    },
    {
      "bufferView": 0,
      "byteOffset": 28032,
      "componentType": 5125,
      "count": 6372,
      "max": [
        6318
      ],
      "min": [
        0
      ],
      "type": "SCALAR"
    },
    {
      "bufferView": 2,
      "byteOffset": 301968,
      "componentType": 5126,
      "count": 4291,
      "max": [
        0.68897640705108643,
        0.15981306135654449,
        1.3779528141021729
      ],
      "min": [
        -0.68897640705108643,
        -0.15981306135654449,
        0
      ],
      "type": "VEC3"
    },
    {
      "bufferView": 2,
      "byteOffset": 353460,
      "componentType": 5126,
      "count": 4291,
      "max": [
        1,
        1,
        1
      ],
      "min": [
        -1,
        -1,
        -1
      ],
      "type": "VEC3"
    },
    {
      "bufferView": 1,
      "byteOffset": 100656,
      "componentType": 5126,
      "count": 4291,
      "max": [
        1.0147254467010498,
        1.1541304588317871
      ],
      "min": [
        -0.10398077964782715,
        -0.15413053333759308
      ],
      "type": "VEC2"
    },
    {
      "bufferView": 0,
      "byteOffset": 53520,
      "componentType": 5125,
      "count": 4356,
      "max": [
        4290
      ],
      "min": [
        0
      ],
      "type": "SCALAR"
    },
    {
      "bufferView": 2,
      "byteOffset": 404952,
      "componentType": 5126,
      "count": 3452,
      "max": [
        0.30006739497184753,
        1.8351501226425171,
        3.6704723834991455
      ],
      "min": [
        -0.30006739497184753,
        -1.8351501226425171,
        0
      ],
      "type": "VEC3"
    },
    {
      "bufferView": 2,
      "byteOffset": 446376,
      "componentType": 5126,
      "count": 3452,
      "max": [
        1,
        1,
        1
      ],
      "min": [
        -1,
        -1,
        -1
      ],
      "type": "VEC3"
    },
    {
      "bufferView": 1,
      "byteOffset": 134984,
      "componentType": 5126,
      "count": 3452,
      "max": [
        1.0006545782089233,
        1.0823719501495361
      ],
      "min": [
        -0.12567591667175293,
        -0.082371979951858521
      ],
      "type": "VEC2"
    },
    {
      "bufferView": 0,
      "byteOffset": 70944,
      "componentType": 5125,
      "count": 3492,
      "max": [
        3451
      ],
      "min": [
        0
      ],
      "type": "SCALAR"
    }
  ],
  "asset": {
    "extras": {
      "author": "fedomo.ru (https://sketchfab.com/fedomo)",
      "license": "CC-BY-4.0 (http://creativecommons.org/licenses/by/4.0/)",
      "source": "https://sketchfab.com/3d-models/a8880lt-1bk-arte-lamp-05d8f8b54b7e47e8a12186ab514435dd",
      "title": "Настольная лампа A8880LT-1BK Arte Lamp"
    },
    "generator": "Sketchfab-8.41.0",
    "version": "2.0"
  },
  "bufferViews": [
    {
      "buffer": 0,
      "byteLength": 84912,
      "byteOffset": 0,
      "name": "floatBufferViews",
      "target": 34963
    },
    {
      "buffer": 0,
      "byteLength": 162600,
      "byteOffset": 84912,
      "byteStride": 8,
      "name": "floatBufferViews",
      "target": 34962
    },
    {
      "buffer": 0,
      "byteLength": 487800,
      "byteOffset": 247512,
      "byteStride": 12,
      "name": "floatBufferViews",
      "target": 34962
    }
  ],
  "buffers": [
    {
      "byteLength": 735312,
      "uri": "scene.bin"
    }
  ],
  "materials": [
    {
      "doubleSided": true,
      "name": "Material_2125647895",
      "pbrMetallicRoughness": {
        "baseColorFactor": [
          1,
          1,
          1,
          1
        ],
        "metallicFactor": 0,
        "roughnessFactor": 0.59999999999999998
      }
    },
    {
      "doubleSided": true,
      "name": "Material_2125648133",
      "pbrMetallicRoughness": {
        "baseColorFactor": [
          1,
          1,
          1,
          1
        ],
        "metallicFactor": 0,
        "roughnessFactor": 0.59999999999999998
      }
    },
    {
      "doubleSided": true,
      "name": "Material_2125647901",
      "pbrMetallicRoughness": {
        "baseColorFactor": [
          1,
          1,
          1,
          1
        ],
        "metallicFactor": 0,
        "roughnessFactor": 0.59999999999999998
      }
    }
  ],
  "meshes": [
    {
      "name": "Box012_Material #2125647895_0",
      "primitives": [
        {
          "attributes": {
            "NORMAL": 1,
            "POSITION": 0,
            "TEXCOORD_0": 2
          },
          "indices": 3,
          "material": 0,
          "mode": 4
        }
      ]
    },
    {
      "name": "Cylinder002_Material #2125648133_0",
      "primitives": [
        {
          "attributes": {
            "NORMAL": 5,
            "POSITION": 4,
            "TEXCOORD_0": 6
          },
          "indices": 7,
          "material": 1,
          "mode": 4
        }
      ]
    },
    {
      "name": "Box010_Material #2125647901_0",
      "primitives": [
        {
          "attributes": {
            "NORMAL": 9,
            "POSITION": 8,
            "TEXCOORD_0": 10
          },
          "indices": 11,
          "material": 2,
          "mode": 4
        }
      ]
    },
    {
      "name": "Box008_Material #2125648133_0",
      "primitives": [
        {
          "attributes": {
            "NORMAL": 13,
            "POSITION": 12,
            "TEXCOORD_0": 14
          },
          "indices": 15,
          "material": 1,
          "mode": 4
        }
      ]
    },
    {
      "name": "Box011_Material #2125648133_0",
      "primitives": [
        {
          "attributes": {
            "NORMAL": 17,
            "POSITION": 16,
            "TEXCOORD_0": 18
          },
          "indices": 19,
          "material": 1,
          "mode": 4
        }
      ]
    },
    {
      "name": "Box009_Material #2125647895_0",
      "primitives": [
        {
          "attributes": {
            "NORMAL": 21,
            "POSITION": 20,
            "TEXCOORD_0": 22
          },
          "indices": 23,
          "material": 0,
          "mode": 4
        }
      ]
    }
  ],
  "nodes": [
    {
      "children": [
        1
      ],
      "name": "RootNode (gltf orientation matrix)",
      "rotation": [
        -0.70710678118654746,
        -0,
        -0,
        0.70710678118654757
      ]
    },
    {
      "children": [
        2
      ],
      "name": "RootNode (model correction matrix)"
    },
    {
      "children": [
        3
      ],
      "matrix": [
        1,
        0,
        0,
        0,
        0,
        0,
        1,
        0,
        0,
        -1,
        0,
        0,
        0,
        0,
        0,
        1
      ],
      "name": "A8880LT-1BK.FBX"
    },
    {
      "children": [
        4
      ],
      "name": "RootNode"
    },
    {
      "children": [
        5,
        7,
        9,
        11,
        13,
        15
      ],
      "matrix": [
        0.93969262642802354,
        0,
        0.34202012782408442,
        0,
        0.34202012782408442,
        0,
        -0.93969262642802354,
        0,
        0,
        1,
        0,
        0,
        466.58697509765625,
        89.134857177734375,
        -112.72467041015625,
        1
      ],
      "name": "Group001"
    },
    {
      "children": [
        6
      ],
      "matrix": [
        0.38823792144305003,
        -1.0666816181269023,
        -1.6914874745910621e-07,
        0,
        -2.1415096745913687e-07,
        -2.3651881675412767e-07,
        0.99999999999994915,
        0,
        -1.0666816181268881,
        -0.38823792144299429,
        -3.2025647438873244e-07,
        0,
        0.7349853515625,
        0.267486572265625,
        -5.209808349609375,
        1
      ],
      "name": "Box012"
    },
    {
      "mesh": 0,
      "name": "Box012_Material #2125647895_0"
    },
    {
      "children": [
        8
      ],
      "matrix": [
        0.93969266213528035,
        0.34202002971918161,
        -1.4210854498149811e-13,
        0,
        0.34202002971832873,
        -0.93969266213293734,
        -2.2331898558254736e-06,
        0,
        -1.2727198056480468e-06,
        3.4967695503299024e-06,
        -1.6663089990574294,
        0,
        6.103515625e-05,
        0,
        2.1557159423828125,
        1
      ],
      "name": "Cylinder002"
    },
    {
      "mesh": 1,
      "name": "Cylinder002_Material #2125648133_0"
    },
    {
      "children": [
        10
      ],
      "matrix": [
        0.94223278094596929,
        0.34294470902158053,
        0,
        0,
        1.3726613545816946e-07,
        -3.7713558231899924e-07,
        0.99999999999991951,
        0,
        0.34294470902155294,
        -0.94223278094589347,
        -4.0242420346251956e-07,
        0,
        -1.35015869140625,
        3.7095947265625,
        5.34710693359375,
        1
      ],
      "name": "Box010"
    },
    {
      "mesh": 2,
      "name": "Box010_Material #2125647901_0"
    },
    {
      "children": [
        12
      ],
      "matrix": [
        0,
        0,
        2.2390637397766113,
        0,
        -1.3767836469862633,
        -0.50110842165807434,
        8.1331752870778196e-17,
        0,
        0.50110842165807423,
        -1.3767836469862631,
        0,
        0,
        -0.58843994140625,
        1.616943359375,
        -7.982391357421875,
        1
      ],
      "name": "Box008"
    },
    {
      "mesh": 3,
      "name": "Box008_Material #2125648133_0"
    },
    {
      "children": [
        14
      ],
      "matrix": [
        0.38823792144305003,
        -1.0666816181269023,
        -1.6914874745910621e-07,
        0,
        -2.1415096745913687e-07,
        -2.3651881675412767e-07,
        0.99999999999994915,
        0,
        -1.0666816181268881,
        -0.38823792144299429,
        -3.2025647438873244e-07,
        0,
        0.7349853515625,
        0.267486572265625,
        0.541839599609375,
        1
      ],
      "name": "Box011"
    },
    {
      "mesh": 4,
      "name": "Box011_Material #2125648133_0"
    },
    {
      "children": [
        16
      ],
      "matrix": [
        2.6236885245871356e-16,
        0,
        1.181604266166687,
        0,
        -1.3767836632234791,
        -0.50110872559117503,
        1.6266351897644619e-16,
        0,
        0.50110872559117503,
        -1.3767836632234791,
        0,
        0,
        -0.91961669921875,
        2.5267333984375,
        -8.4127960205078125,
        1
      ],
      "name": "Box009"
    },
    {
      "mesh": 5,
      "name": "Box009_Material #2125647895_0"
    }
  ],
  "scene": 0,
  "scenes": [
    {
      "name": "OSG_Scene",
      "nodes": [
        0
      ]
    }
  ]
}

