{
  "accessors": [
    {
      "bufferView": 2,
      "componentType": 5126,
      "count": 537,
      "max": [
        36.683807373046875,
        43.020339965820312,
        49.417728424072266
      ],
      "min": [
        -35.486202239990234,
        -30.923286437988281,
        0.080769538879394531
      ],
      "type": "VEC3"
    },
    {
      "bufferView": 2,
      "byteOffset": 6444,
      "componentType": 5126,
      "count": 537,
      "max": [
        0.99983114004135132,
        0.99993842840194702,
        0.99979454278945923
      ],
      "min": [
        -0.99999338388442993,
        -0.98549234867095947,
        -0.99979454278945923
      ],
      "type": "VEC3"
    },
    {
      "bufferView": 3,
      "componentType": 5126,
      "count": 537,
      "max": [
        0.99997556209564209,
        0.99986684322357178,
        0.99414259195327759,
        1
      ],
      "min": [
        -0.99993526935577393,
        -0.99999254941940308,
        -0.99966329336166382,
        -1
      ],
      "type": "VEC4"
    },
    {
      "bufferView": 1,
      "componentType": 5126,
      "count": 537,
      "max": [
        0.88029199838638306,
        0.65238851308822632
      ],
      "min": [
        0.35821619629859924,
        0.00340032740496099
      ],
      "type": "VEC2"
    },
    {
      "bufferView": 0,
      "componentType": 5125,
      "count": 1449,
      "max": [
        536
      ],
      "min": [
        0
      ],
      "type": "SCALAR"
    },
    {
      "bufferView": 2,
      "byteOffset": 12888,
      "componentType": 5126,
      "count": 236,
      "max": [
        10.072380065917969,
        10.072381019592285,
        16.923698425292969
      ],
      "min": [
        -10.072380065917969,
        -10.072380065917969,
        0
      ],
      "type": "VEC3"
    },
    {
      "bufferView": 2,
      "byteOffset": 15720,
      "componentType": 5126,
      "count": 236,
      "max": [
        0.98531723022460938,
        0.98531723022460938,
        1
      ],
      "min": [
        -0.98531723022460938,
        -0.98531723022460938,
        -1
      ],
      "type": "VEC3"
    },
    {
      "bufferView": 3,
      "byteOffset": 8592,
      "componentType": 5126,
      "count": 236,
      "max": [
        0.9999803900718689,
        0.99994015693664551,
        0.4277709424495697,
        1
      ],
      "min": [
        -0.99964010715484619,
        -0.99999845027923584,
        -0.43041476607322693,
        1
      ],
      "type": "VEC4"
    },
    {
      "bufferView": 1,
      "byteOffset": 4296,
      "componentType": 5126,
      "count": 236,
      "max": [
        0.98111683130264282,
        0.9915739893913269
      ],
      "min": [
        0.094219736754894257,
        0.0069374293088912964
      ],
      "type": "VEC2"
    },
    {
      "bufferView": 0,
      "byteOffset": 5796,
      "componentType": 5125,
      "count": 852,
      "max": [
        235
      ],
      "min": [
        0
      ],
      "type": "SCALAR"
    }
  ],
  "asset": {
    "extras": {
      "author": "attben (https://sketchfab.com/attben)",
      "license": "CC-BY-4.0 (http://creativecommons.org/licenses/by/4.0/)",
      "source": "https://sketchfab.com/3d-models/potted-plant-1-9c6eccd1a8eb434981317bf3e66ec2bb",
      "title": "potted_plant-1"
    },
    "generator": "Sketchfab-6.90.0",
    "version": "2.0"
  },
  "bufferViews": [
    {
      "buffer": 0,
      "byteLength": 9204,
      "byteOffset": 0,
      "name": "floatBufferViews",
      "target": 34963
    },
    {
      "buffer": 0,
      "byteLength": 6184,
      "byteOffset": 9204,
      "byteStride": 8,
      "name": "floatBufferViews",
      "target": 34962
    },
    {
      "buffer": 0,
      "byteLength": 18552,
      "byteOffset": 15388,
      "byteStride": 12,
      "name": "floatBufferViews",
      "target": 34962
    },
    {
      "buffer": 0,
      "byteLength": 12368,
      "byteOffset": 33940,
      "byteStride": 16,
      "name": "floatBufferViews",
      "target": 34962
    }
  ],
  "buffers": [
    {
      "byteLength": 46308,
      "uri": "scene.bin"
    }
  ],
  "images": [
    {
      "uri": "textures/01_-_Default_baseColor.png"
    },
    {
      "uri": "textures/01_-_Default_0_baseColor.png"
    }
  ],
  "materials": [
    {
      "alphaMode": "BLEND",
      "doubleSided": true,
      "emissiveFactor": [
        0,
        0,
        0
      ],
      "name": "01_-_Default",
      "pbrMetallicRoughness": {
        "baseColorFactor": [
          1,
          1,
          1,
          1
        ],
        "baseColorTexture": {
          "index": 0,
          "texCoord": 0
        },
        "metallicFactor": 0.72002098995184749,
        "roughnessFactor": 1
      }
    },
    {
      "doubleSided": true,
      "emissiveFactor": [
        0,
        0,
        0
      ],
      "name": "01_-_Default_0",
      "pbrMetallicRoughness": {
        "baseColorFactor": [
          1,
          1,
          1,
          1
        ],
        "baseColorTexture": {
          "index": 1,
          "texCoord": 0
        },
        "metallicFactor": 0,
        "roughnessFactor": 0.89297135964975516
      }
    }
  ],
  "meshes": [
    {
      "name": "leaves_01 - Default_0",
      "primitives": [
        {
          "attributes": {
            "NORMAL": 1,
            "POSITION": 0,
            "TANGENT": 2,
            "TEXCOORD_0": 3
          },
          "indices": 4,
          "material": 0,
          "mode": 4
        }
      ]
    },
    {
      "name": "pot_01 - Default_0",
      "primitives": [
        {
          "attributes": {
            "NORMAL": 6,
            "POSITION": 5,
            "TANGENT": 7,
            "TEXCOORD_0": 8
          },
          "indices": 9,
          "material": 1,
          "mode": 4
        }
      ]
    }
  ],
  "nodes": [
    {
      "children": [
        1
      ],
      "name": "RootNode (gltf orientation matrix)",
      "rotation": [
        -0.70710678118654746,
        -0,
        -0,
        0.70710678118654757
      ]
    },
    {
      "children": [
        2
      ],
      "name": "RootNode (model correction matrix)"
    },
    {
      "children": [
        3
      ],
      "matrix": [
        1,
        0,
        0,
        0,
        0,
        0,
        1,
        0,
        0,
        -1,
        0,
        0,
        0,
        0,
        0,
        1
      ],
      "name": "a36f98a05c014fbf831191af88b74017.fbx"
    },
    {
      "children": [
        4,
        6
      ],
      "name": "RootNode"
    },
    {
      "children": [
        5
      ],
      "matrix": [
        1,
        0,
        0,
        0,
        0,
        2.2204460492503131e-16,
        -1,
        0,
        0,
        1,
        2.2204460492503131e-16,
        0,
        1.3467378616333008,
        14.400161743164062,
        2.5653131008148193,
        1
      ],
      "name": "leaves"
    },
    {
      "mesh": 0,
      "name": "leaves_01 - Default_0"
    },
    {
      "children": [
        7
      ],
      "matrix": [
        1,
        0,
        0,
        0,
        0,
        2.2204460492503131e-16,
        -1,
        0,
        0,
        1,
        2.2204460492503131e-16,
        0,
        -0.0055038928985595703,
        -0.042048126459121704,
        -0.038423758000135422,
        1
      ],
      "name": "pot"
    },
    {
      "mesh": 1,
      "name": "pot_01 - Default_0"
    }
  ],
  "samplers": [
    {
      "magFilter": 9729,
      "minFilter": 9987,
      "wrapS": 10497,
      "wrapT": 10497
    }
  ],
  "scene": 0,
  "scenes": [
    {
      "name": "OSG_Scene",
      "nodes": [
        0
      ]
    }
  ],
  "textures": [
    {
      "sampler": 0,
      "source": 0
    },
    {
      "sampler": 0,
      "source": 1
    }
  ]
}

