{
  "accessors": [
    {
      "bufferView": 2,
      "componentType": 5126,
      "count": 236,
      "max": [
        10.072380065917969,
        10.072381019592285,
        16.923698425292969
      ],
      "min": [
        -10.072380065917969,
        -10.072380065917969,
        0
      ],
      "type": "VEC3"
    },
    {
      "bufferView": 2,
      "byteOffset": 2832,
      "componentType": 5126,
      "count": 236,
      "max": [
        0.98531723022460938,
        0.98531723022460938,
        1
      ],
      "min": [
        -0.98531723022460938,
        -0.98531723022460938,
        -1
      ],
      "type": "VEC3"
    },
    {
      "bufferView": 3,
      "componentType": 5126,
      "count": 236,
      "max": [
        0.9999803900718689,
        0.99994015693664551,
        0.4277709424495697,
        1
      ],
      "min": [
        -0.99964010715484619,
        -0.99999845027923584,
        -0.43041476607322693,
        1
      ],
      "type": "VEC4"
    },
    {
      "bufferView": 1,
      "componentType": 5126,
      "count": 236,
      "max": [
        0.98111683130264282,
        0.9915739893913269
      ],
      "min": [
        0.094219736754894257,
        0.0069374293088912964
      ],
      "type": "VEC2"
    },
    {
      "bufferView": 0,
      "componentType": 5125,
      "count": 852,
      "max": [
        235
      ],
      "min": [
        0
      ],
      "type": "SCALAR"
    },
    {
      "bufferView": 2,
      "byteOffset": 5664,
      "componentType": 5126,
      "count": 303,
      "max": [
        55.335235595703125,
        53.041404724121094,
        35.382251739501953
      ],
      "min": [
        -25.307302474975586,
        -46.782398223876953,
        -19.763286590576172
      ],
      "type": "VEC3"
    },
    {
      "bufferView": 2,
      "byteOffset": 9300,
      "componentType": 5126,
      "count": 303,
      "max": [
        0.98194736242294312,
        0.96213287115097046,
        0.9891473650932312
      ],
      "min": [
        -0.9983399510383606,
        -0.97269529104232788,
        -0.9891473650932312
      ],
      "type": "VEC3"
    },
    {
      "bufferView": 3,
      "byteOffset": 3776,
      "componentType": 5126,
      "count": 303,
      "max": [
        0.99419230222702026,
        0.97156441211700439,
        0.69285368919372559,
        1
      ],
      "min": [
        -0.99128645658493042,
        -0.99819201231002808,
        -0.7966536283493042,
        -1
      ],
      "type": "VEC4"
    },
    {
      "bufferView": 1,
      "byteOffset": 1888,
      "componentType": 5126,
      "count": 303,
      "max": [
        0.82296216487884521,
        0.99507945775985718
      ],
      "min": [
        0.37448227405548096,
        0.69053316116333008
      ],
      "type": "VEC2"
    },
    {
      "bufferView": 0,
      "byteOffset": 3408,
      "componentType": 5125,
      "count": 741,
      "max": [
        302
      ],
      "min": [
        0
      ],
      "type": "SCALAR"
    }
  ],
  "asset": {
    "extras": {
      "author": "attben (https://sketchfab.com/attben)",
      "license": "CC-BY-4.0 (http://creativecommons.org/licenses/by/4.0/)",
      "source": "https://sketchfab.com/3d-models/potted-plant-2-ba0911be208b41919933417f82dc3fc4",
      "title": "potted_plant-2"
    },
    "generator": "Sketchfab-5.18.0",
    "version": "2.0"
  },
  "bufferViews": [
    {
      "buffer": 0,
      "byteLength": 6372,
      "byteOffset": 0,
      "name": "floatBufferViews",
      "target": 34963
    },
    {
      "buffer": 0,
      "byteLength": 4312,
      "byteOffset": 6372,
      "byteStride": 8,
      "name": "floatBufferViews",
      "target": 34962
    },
    {
      "buffer": 0,
      "byteLength": 12936,
      "byteOffset": 10684,
      "byteStride": 12,
      "name": "floatBufferViews",
      "target": 34962
    },
    {
      "buffer": 0,
      "byteLength": 8624,
      "byteOffset": 23620,
      "byteStride": 16,
      "name": "floatBufferViews",
      "target": 34962
    }
  ],
  "buffers": [
    {
      "byteLength": 32244,
      "uri": "scene.bin"
    }
  ],
  "images": [
    {
      "uri": "textures/01_-_Default_baseColor.png"
    },
    {
      "uri": "textures/01_-_Default_0_baseColor.png"
    }
  ],
  "materials": [
    {
      "doubleSided": true,
      "emissiveFactor": [
        0,
        0,
        0
      ],
      "name": "01_-_Default",
      "pbrMetallicRoughness": {
        "baseColorFactor": [
          1,
          1,
          1,
          1
        ],
        "baseColorTexture": {
          "index": 0,
          "texCoord": 0
        },
        "metallicFactor": 0,
        "roughnessFactor": 0.89297135959999996
      }
    },
    {
      "alphaMode": "BLEND",
      "doubleSided": true,
      "emissiveFactor": [
        0,
        0,
        0
      ],
      "name": "01_-_Default_0",
      "pbrMetallicRoughness": {
        "baseColorFactor": [
          1,
          1,
          1,
          1
        ],
        "baseColorTexture": {
          "index": 1,
          "texCoord": 0
        },
        "metallicFactor": 0.46215935470000002,
        "roughnessFactor": 0.87117397860000001
      }
    }
  ],
  "meshes": [
    {
      "name": "pot_01 - Default_0",
      "primitives": [
        {
          "attributes": {
            "NORMAL": 1,
            "POSITION": 0,
            "TANGENT": 2,
            "TEXCOORD_0": 3
          },
          "indices": 4,
          "material": 0,
          "mode": 4
        }
      ]
    },
    {
      "name": "leaves_01 - Default_0",
      "primitives": [
        {
          "attributes": {
            "NORMAL": 6,
            "POSITION": 5,
            "TANGENT": 7,
            "TEXCOORD_0": 8
          },
          "indices": 9,
          "material": 1,
          "mode": 4
        }
      ]
    }
  ],
  "nodes": [
    {
      "children": [
        1
      ],
      "name": "RootNode (gltf orientation matrix)",
      "rotation": [
        -0.70710678118654746,
        -0,
        -0,
        0.70710678118654757
      ]
    },
    {
      "children": [
        2
      ],
      "name": "RootNode (model correction matrix)"
    },
    {
      "children": [
        3
      ],
      "matrix": [
        1,
        0,
        0,
        0,
        0,
        0,
        1,
        0,
        0,
        -1,
        0,
        0,
        0,
        0,
        0,
        1
      ],
      "name": "5cd7937f5ea447b2a480ad96a9c41acc.fbx"
    },
    {
      "children": [
        4,
        6
      ],
      "name": "RootNode"
    },
    {
      "children": [
        5
      ],
      "matrix": [
        1,
        0,
        0,
        0,
        0,
        2.2204460492503131e-16,
        -1,
        0,
        0,
        1,
        2.2204460492503131e-16,
        0,
        -0.0055038928985595703,
        -0.042048126459121704,
        -0.038423758000135422,
        1
      ],
      "name": "pot"
    },
    {
      "mesh": 0,
      "name": "pot_01 - Default_0"
    },
    {
      "children": [
        7
      ],
      "matrix": [
        1,
        0,
        0,
        0,
        0,
        2.2204460492503131e-16,
        -1,
        0,
        0,
        1,
        2.2204460492503131e-16,
        0,
        -13.557384490966797,
        33.618267059326172,
        5.0940546989440918,
        1
      ],
      "name": "leaves"
    },
    {
      "mesh": 1,
      "name": "leaves_01 - Default_0"
    }
  ],
  "samplers": [
    {
      "magFilter": 9729,
      "minFilter": 9987,
      "wrapS": 10497,
      "wrapT": 10497
    }
  ],
  "scene": 0,
  "scenes": [
    {
      "name": "OSG_Scene",
      "nodes": [
        0
      ]
    }
  ],
  "textures": [
    {
      "sampler": 0,
      "source": 0
    },
    {
      "sampler": 0,
      "source": 1
    }
  ]
}

