{
  "accessors": [
    {
      "bufferView": 2,
      "componentType": 5126,
      "count": 813,
      "max": [
        1.195737361907959,
        1.1839252710342407,
        1.2861319780349731
      ],
      "min": [
        -1.1558164358139038,
        -1.4421876668930054,
        -1.3784372806549072
      ],
      "type": "VEC3"
    },
    {
      "bufferView": 2,
      "byteOffset": 9756,
      "componentType": 5126,
      "count": 813,
      "max": [
        0.99954319000244141,
        0.99978029727935791,
        0.99997234344482422
      ],
      "min": [
        -0.99984747171401978,
        -0.99999904632568359,
        -0.99999964237213135
      ],
      "type": "VEC3"
    },
    {
      "bufferView": 1,
      "componentType": 5126,
      "count": 813,
      "max": [
        1.0000001192092896,
        1
      ],
      "min": [
        0,
        0
      ],
      "type": "VEC2"
    },
    {
      "bufferView": 0,
      "componentType": 5125,
      "count": 4320,
      "max": [
        812
      ],
      "min": [
        0
      ],
      "type": "SCALAR"
    },
    {
      "bufferView": 2,
      "byteOffset": 19512,
      "componentType": 5126,
      "count": 813,
      "max": [
        1.195737361907959,
        1.1839252710342407,
        1.2861319780349731
      ],
      "min": [
        -1.1558164358139038,
        -1.4421876668930054,
        -1.3784372806549072
      ],
      "type": "VEC3"
    },
    {
      "bufferView": 2,
      "byteOffset": 29268,
      "componentType": 5126,
      "count": 813,
      "max": [
        0.99954319000244141,
        0.99978029727935791,
        0.99997234344482422
      ],
      "min": [
        -0.99984747171401978,
        -0.99999904632568359,
        -0.99999964237213135
      ],
      "type": "VEC3"
    },
    {
      "bufferView": 1,
      "byteOffset": 6504,
      "componentType": 5126,
      "count": 813,
      "max": [
        1.0000001192092896,
        1
      ],
      "min": [
        0,
        0
      ],
      "type": "VEC2"
    },
    {
      "bufferView": 0,
      "byteOffset": 17280,
      "componentType": 5125,
      "count": 4320,
      "max": [
        812
      ],
      "min": [
        0
      ],
      "type": "SCALAR"
    },
    {
      "bufferView": 2,
      "byteOffset": 39024,
      "componentType": 5126,
      "count": 813,
      "max": [
        1.195737361907959,
        1.1839252710342407,
        1.2861319780349731
      ],
      "min": [
        -1.1558164358139038,
        -1.4421876668930054,
        -1.3784372806549072
      ],
      "type": "VEC3"
    },
    {
      "bufferView": 2,
      "byteOffset": 48780,
      "componentType": 5126,
      "count": 813,
      "max": [
        0.99954319000244141,
        0.99978029727935791,
        0.99997234344482422
      ],
      "min": [
        -0.99984747171401978,
        -0.99999904632568359,
        -0.99999964237213135
      ],
      "type": "VEC3"
    },
    {
      "bufferView": 1,
      "byteOffset": 13008,
      "componentType": 5126,
      "count": 813,
      "max": [
        1.0000001192092896,
        1
      ],
      "min": [
        0,
        0
      ],
      "type": "VEC2"
    },
    {
      "bufferView": 0,
      "byteOffset": 34560,
      "componentType": 5125,
      "count": 4320,
      "max": [
        812
      ],
      "min": [
        0
      ],
      "type": "SCALAR"
    },
    {
      "bufferView": 2,
      "byteOffset": 58536,
      "componentType": 5126,
      "count": 813,
      "max": [
        1.195737361907959,
        1.1839252710342407,
        1.2861319780349731
      ],
      "min": [
        -1.1558164358139038,
        -1.4421876668930054,
        -1.3784372806549072
      ],
      "type": "VEC3"
    },
    {
      "bufferView": 2,
      "byteOffset": 68292,
      "componentType": 5126,
      "count": 813,
      "max": [
        0.99954319000244141,
        0.99978029727935791,
        0.99997234344482422
      ],
      "min": [
        -0.99984747171401978,
        -0.99999904632568359,
        -0.99999964237213135
      ],
      "type": "VEC3"
    },
    {
      "bufferView": 1,
      "byteOffset": 19512,
      "componentType": 5126,
      "count": 813,
      "max": [
        1.0000001192092896,
        1
      ],
      "min": [
        0,
        0
      ],
      "type": "VEC2"
    },
    {
      "bufferView": 0,
      "byteOffset": 51840,
      "componentType": 5125,
      "count": 4320,
      "max": [
        812
      ],
      "min": [
        0
      ],
      "type": "SCALAR"
    },
    {
      "bufferView": 2,
      "byteOffset": 78048,
      "componentType": 5126,
      "count": 7638,
      "max": [
        2.9113292694091797,
        2.9108080863952637,
        1.0397475957870483
      ],
      "min": [
        -2.9092440605163574,
        -2.9108080863952637,
        0
      ],
      "type": "VEC3"
    },
    {
      "bufferView": 2,
      "byteOffset": 169704,
      "componentType": 5126,
      "count": 7638,
      "max": [
        1,
        0.99982094764709473,
        1
      ],
      "min": [
        -0.99928379058837891,
        -0.99982094764709473,
        -1
      ],
      "type": "VEC3"
    },
    {
      "bufferView": 1,
      "byteOffset": 26016,
      "componentType": 5126,
      "count": 7638,
      "max": [
        1.0030970573425293,
        1.0031849145889282
      ],
      "min": [
        -0.0030970952939242125,
        -0.0028290566988289356
      ],
      "type": "VEC2"
    },
    {
      "bufferView": 0,
      "byteOffset": 69120,
      "componentType": 5125,
      "count": 11940,
      "max": [
        7637
      ],
      "min": [
        0
      ],
      "type": "SCALAR"
    },
    {
      "bufferView": 2,
      "byteOffset": 261360,
      "componentType": 5126,
      "count": 672,
      "max": [
        5.9055118560791016,
        5.904454231262207,
        8.1412239074707031
      ],
      "min": [
        -5.9012823104858398,
        -5.904454231262207,
        0
      ],
      "type": "VEC3"
    },
    {
      "bufferView": 2,
      "byteOffset": 269424,
      "componentType": 5126,
      "count": 672,
      "max": [
        1,
        0.9998210072517395,
        1
      ],
      "min": [
        -1,
        -0.9998210072517395,
        -1
      ],
      "type": "VEC3"
    },
    {
      "bufferView": 1,
      "byteOffset": 87120,
      "componentType": 5126,
      "count": 672,
      "max": [
        1.00301194190979,
        1
      ],
      "min": [
        0.0030119994189590216,
        0
      ],
      "type": "VEC2"
    },
    {
      "bufferView": 0,
      "byteOffset": 116880,
      "componentType": 5125,
      "count": 1992,
      "max": [
        671
      ],
      "min": [
        0
      ],
      "type": "SCALAR"
    },
    {
      "bufferView": 2,
      "byteOffset": 277488,
      "componentType": 5126,
      "count": 3962,
      "max": [
        0.94204258918762207,
        0.94248950481414795,
        1.0351024866104126
      ],
      "min": [
        -0.94204252958297729,
        -0.94070196151733398,
        -3.6213440895080566
      ],
      "type": "VEC3"
    },
    {
      "bufferView": 2,
      "byteOffset": 325032,
      "componentType": 5126,
      "count": 3962,
      "max": [
        0.99952566623687744,
        0.99952799081802368,
        1
      ],
      "min": [
        -0.99952578544616699,
        -1,
        -1
      ],
      "type": "VEC3"
    },
    {
      "bufferView": 1,
      "byteOffset": 92496,
      "componentType": 5126,
      "count": 3962,
      "max": [
        1.0000005960464478,
        1
      ],
      "min": [
        0,
        0.17394788563251495
      ],
      "type": "VEC2"
    },
    {
      "bufferView": 0,
      "byteOffset": 124848,
      "componentType": 5125,
      "count": 20496,
      "max": [
        3961
      ],
      "min": [
        0
      ],
      "type": "SCALAR"
    }
  ],
  "asset": {
    "extras": {
      "author": "fedomo.ru (https://sketchfab.com/fedomo)",
      "license": "CC-BY-4.0 (http://creativecommons.org/licenses/by/4.0/)",
      "source": "https://sketchfab.com/3d-models/a4610lt-1cc-arte-lamp-31dd0f684a3140b7aecc55aa37771090",
      "title": "Настольная лампа A4610LT-1CC Arte Lamp"
    },
    "generator": "Sketchfab-8.39.0",
    "version": "2.0"
  },
  "bufferViews": [
    {
      "buffer": 0,
      "byteLength": 206832,
      "byteOffset": 0,
      "name": "floatBufferViews",
      "target": 34963
    },
    {
      "buffer": 0,
      "byteLength": 124192,
      "byteOffset": 206832,
      "byteStride": 8,
      "name": "floatBufferViews",
      "target": 34962
    },
    {
      "buffer": 0,
      "byteLength": 372576,
      "byteOffset": 331024,
      "byteStride": 12,
      "name": "floatBufferViews",
      "target": 34962
    }
  ],
  "buffers": [
    {
      "byteLength": 703600,
      "uri": "scene.bin"
    }
  ],
  "materials": [
    {
      "doubleSided": true,
      "name": "Material_2125647904",
      "pbrMetallicRoughness": {
        "baseColorFactor": [
          1,
          1,
          1,
          1
        ],
        "metallicFactor": 0,
        "roughnessFactor": 0.59999999999999998
      }
    },
    {
      "doubleSided": true,
      "name": "Material_2125647901",
      "pbrMetallicRoughness": {
        "baseColorFactor": [
          1,
          1,
          1,
          1
        ],
        "metallicFactor": 0,
        "roughnessFactor": 0.59999999999999998
      }
    }
  ],
  "meshes": [
    {
      "name": "Sphere002_Material #2125647904_0",
      "primitives": [
        {
          "attributes": {
            "NORMAL": 1,
            "POSITION": 0,
            "TEXCOORD_0": 2
          },
          "indices": 3,
          "material": 0,
          "mode": 4
        }
      ]
    },
    {
      "name": "Sphere003_Material #2125647904_0",
      "primitives": [
        {
          "attributes": {
            "NORMAL": 5,
            "POSITION": 4,
            "TEXCOORD_0": 6
          },
          "indices": 7,
          "material": 0,
          "mode": 4
        }
      ]
    },
    {
      "name": "Sphere004_Material #2125647904_0",
      "primitives": [
        {
          "attributes": {
            "NORMAL": 9,
            "POSITION": 8,
            "TEXCOORD_0": 10
          },
          "indices": 11,
          "material": 0,
          "mode": 4
        }
      ]
    },
    {
      "name": "Sphere005_Material #2125647904_0",
      "primitives": [
        {
          "attributes": {
            "NORMAL": 13,
            "POSITION": 12,
            "TEXCOORD_0": 14
          },
          "indices": 15,
          "material": 0,
          "mode": 4
        }
      ]
    },
    {
      "name": "Cylinder001_Material #2125647904_0",
      "primitives": [
        {
          "attributes": {
            "NORMAL": 17,
            "POSITION": 16,
            "TEXCOORD_0": 18
          },
          "indices": 19,
          "material": 0,
          "mode": 4
        }
      ]
    },
    {
      "name": "Cylinder002_Material #2125647901_0",
      "primitives": [
        {
          "attributes": {
            "NORMAL": 21,
            "POSITION": 20,
            "TEXCOORD_0": 22
          },
          "indices": 23,
          "material": 1,
          "mode": 4
        }
      ]
    },
    {
      "name": "Sphere001_Material #2125647904_0",
      "primitives": [
        {
          "attributes": {
            "NORMAL": 25,
            "POSITION": 24,
            "TEXCOORD_0": 26
          },
          "indices": 27,
          "material": 0,
          "mode": 4
        }
      ]
    }
  ],
  "nodes": [
    {
      "children": [
        1
      ],
      "name": "RootNode (gltf orientation matrix)",
      "rotation": [
        -0.70710678118654746,
        -0,
        -0,
        0.70710678118654757
      ]
    },
    {
      "children": [
        2
      ],
      "name": "RootNode (model correction matrix)"
    },
    {
      "children": [
        3
      ],
      "matrix": [
        1,
        0,
        0,
        0,
        0,
        0,
        1,
        0,
        0,
        -1,
        0,
        0,
        0,
        0,
        0,
        1
      ],
      "name": "A4610LT-1CC.FBX"
    },
    {
      "children": [
        4
      ],
      "name": "RootNode"
    },
    {
      "children": [
        5,
        7,
        9,
        11,
        13,
        15,
        17
      ],
      "matrix": [
        0.86602539989853256,
        5.5511151231257827e-17,
        -0.50000000673058675,
        0,
        -0.50000000673058675,
        2.2204460492503131e-16,
        -0.86602539989853244,
        0,
        5.5511151231257827e-17,
        0.99999999999999989,
        2.2204460492503131e-16,
        0,
        466.7142333984375,
        89.134849548339844,
        -106.92671966552734,
        1
      ],
      "name": "Group001"
    },
    {
      "children": [
        6
      ],
      "matrix": [
        1.1102230246251565e-16,
        1,
        -5.5511151231257827e-17,
        0,
        4.2048563526289322e-08,
        1.0679889030838731e-16,
        0.96195888519287021,
        0,
        1.2423343658447255,
        -6.8963410862195405e-17,
        -5.4304166467884616e-08,
        0,
        0.532684326171875,
        -0.0199737548828125,
        -0.8722686767578125,
        1
      ],
      "name": "Sphere002"
    },
    {
      "mesh": 0,
      "name": "Sphere002_Material #2125647904_0"
    },
    {
      "children": [
        8
      ],
      "matrix": [
        -1.4901161193847603e-07,
        -0.99999994039534412,
        -1.1102229584507075e-16,
        0,
        -1.5672302070096554e-07,
        2.3282158087228433e-14,
        0.96195888519285833,
        0,
        -1.2423343658446964,
        1.8512225738627009e-07,
        -2.024019920176801e-07,
        0,
        -0.56494140625,
        -0.01995849609375,
        -3.2478790283203125,
        1
      ],
      "name": "Sphere003"
    },
    {
      "mesh": 1,
      "name": "Sphere003_Material #2125647904_0"
    },
    {
      "children": [
        10
      ],
      "matrix": [
        1.1102230246251565e-16,
        1,
        -5.5511151231257827e-17,
        0,
        4.2048563526289322e-08,
        1.0679889030838731e-16,
        0.96195888519287021,
        0,
        1.2423343658447255,
        -6.8963410862195405e-17,
        -5.4304166467884616e-08,
        0,
        0.532684326171875,
        -0.0199737548828125,
        -5.63702392578125,
        1
      ],
      "name": "Sphere004"
    },
    {
      "mesh": 2,
      "name": "Sphere004_Material #2125647904_0"
    },
    {
      "children": [
        12
      ],
      "matrix": [
        -1.4901161193847603e-07,
        -0.99999994039534412,
        -1.1102229584507075e-16,
        0,
        -1.5672302070096554e-07,
        2.3282158087228433e-14,
        0.96195888519285833,
        0,
        -1.2423343658446964,
        1.8512225738627009e-07,
        -2.024019920176801e-07,
        0,
        -0.56494140625,
        -0.01995849609375,
        -8.0106964111328125,
        1
      ],
      "name": "Sphere005"
    },
    {
      "mesh": 3,
      "name": "Sphere005_Material #2125647904_0"
    },
    {
      "children": [
        14
      ],
      "matrix": [
        -0.99999999999994649,
        3.2782554638710727e-07,
        0,
        0,
        3.2782554638708991e-07,
        0.9999999999998932,
        -3.2584136912017359e-07,
        0,
        -1.0681912486734401e-13,
        -3.2584136912015612e-07,
        -0.99999999999994715,
        0,
        0.002166748046875,
        0,
        -9.4127349853515625,
        1
      ],
      "name": "Cylinder001"
    },
    {
      "mesh": 4,
      "name": "Cylinder001_Material #2125647904_0"
    },
    {
      "children": [
        16
      ],
      "matrix": [
        -0.99999999999994649,
        3.2782554638710727e-07,
        0,
        0,
        3.2782554638708991e-07,
        0.9999999999998932,
        -3.2584136912017359e-07,
        0,
        -1.0681912486734401e-13,
        -3.2584136912015612e-07,
        -0.99999999999994715,
        0,
        0.002166748046875,
        0,
        10.452499389648438,
        1
      ],
      "name": "Cylinder002"
    },
    {
      "mesh": 5,
      "name": "Cylinder002_Material #2125647901_0"
    },
    {
      "children": [
        18
      ],
      "matrix": [
        -0.99999999999994649,
        3.2782554638710727e-07,
        0,
        0,
        3.2782554638708991e-07,
        0.9999999999998932,
        -3.2584136912017359e-07,
        0,
        -1.0118607871250166e-13,
        -3.0865830874880133e-07,
        -0.94726556539530515,
        0,
        0.00103759765625,
        -0.000885009765625,
        1.1132354736328125,
        1
      ],
      "name": "Sphere001"
    },
    {
      "mesh": 6,
      "name": "Sphere001_Material #2125647904_0"
    }
  ],
  "scene": 0,
  "scenes": [
    {
      "name": "OSG_Scene",
      "nodes": [
        0
      ]
    }
  ]
}

